<svg xmlns="http://www.w3.org/2000/svg" version="1.1" xmlns:xlink="http://www.w3.org/1999/xlink" xmlns:svgjs="http://svgjs.dev/svgjs" width="1500" height="1500" viewBox="0 0 1500 1500"><g transform="matrix(0.6666666666666666,0,0,0.6666666666666666,249.39393939393943,588.621285286897)">

<svg viewBox="0 0 396 128" data-background-color="#ffffff" preserveAspectRatio="xMidYMid meet" height="484" width="1500" xmlns="http://www.w3.org/2000/svg" xmlns:xlink="http://www.w3.org/1999/xlink"><g id="tight-bounds" transform="matrix(1,0,0,1,0.2400000000000091,0.026477386967712846)"><svg viewBox="0 0 395.52 127.94705468861937" height="127.94705468861937" width="395.52"><g><svg viewBox="0 0 667.760669536549 216.0143884104519" height="127.94705468861937" width="395.52"><g transform="matrix(1,0,0,1,272.24066953654904,28.021303121430307)">
<svg viewBox="0 0 395.52 159.97178216759127" height="159.97178216759127" width="395.52"><g id="textblocktransform"><svg viewBox="0 0 395.52 159.97178216759127" height="159.97178216759127" width="395.52" id="textblock"><g><svg viewBox="0 0 395.52 117.79812236969894" height="117.79812236969894" width="395.52"><g transform="matrix(1,0,0,1,0,0)">




<svg width="395.52" viewBox="3.9 -35.5 154.44 46" height="117.79812236969894" data-palette-color="#636365"><path d="M27.9 0L27.9-26.75 18.8 0 15.75 0 6.7-26.75 6.7 0 3.9 0 3.9-35 6.7-35 17.25-4.3 27.9-35 30.7-35 30.7 0 27.9 0ZM49.3 8.35Q52.65 7.1 52.65 3.15L52.65 3.15 52.65-2.45Q51.7-0.85 49.8-0.13 47.9 0.6 45.7 0.6L45.7 0.6Q41.3 0.6 38.92-1.78 36.55-4.15 36.55-8.8L36.55-8.8 36.55-25.05 39.25-25.05 39.25-8.3Q39.25-5.1 41-3.53 42.75-1.95 45.7-1.95L45.7-1.95Q48.8-1.95 50.7-3.5 52.6-5.05 52.6-8.3L52.6-8.3 52.6-18.15Q52.6-20.55 52.75-21.73 52.9-22.9 53.67-23.93 54.45-24.95 56.25-25.5L56.25-25.5 57-23.6Q55.3-22.85 55.3-20.1L55.3-20.1 55.3 3.05Q55.3 6.1 54.1 7.85 52.9 9.6 50.05 10.5L50.05 10.5 49.3 8.35ZM63.4-8.9Q63.55-7.2 64.67-5.65 65.8-4.1 67.77-3.13 69.75-2.15 72.3-2.15L72.3-2.15Q76.15-2.15 78.72-3.88 81.3-5.6 81.3-9.35L81.3-9.35Q81.3-11.55 80.05-13.03 78.8-14.5 76.95-15.38 75.1-16.25 71.9-17.4L71.9-17.4Q68.45-18.6 66.37-19.63 64.3-20.65 62.87-22.4 61.45-24.15 61.45-26.9L61.45-26.9Q61.45-29.1 62.7-31.08 63.95-33.05 66.47-34.27 69-35.5 72.7-35.5L72.7-35.5Q75.15-35.5 76.75-35.15 78.35-34.8 80-34L80-34 79.15-31.35Q76.3-32.8 72.8-32.8L72.8-32.8Q68.95-32.8 66.65-31.2 64.35-29.6 64.35-26.75L64.35-26.75Q64.35-24.95 65.5-23.73 66.65-22.5 68.32-21.75 70-21 73-19.95L73-19.95Q76.65-18.7 78.9-17.63 81.15-16.55 82.72-14.58 84.3-12.6 84.3-9.6L84.3-9.6Q84.3-5 81.37-2.23 78.45 0.55 72.35 0.55L72.35 0.55Q68.65 0.55 66.02-0.83 63.4-2.2 62.02-4.38 60.65-6.55 60.55-8.9L60.55-8.9 63.4-8.9ZM105.64 0L105.64-17.15Q105.64-20.2 103.87-21.58 102.09-22.95 99.29-22.95L99.29-22.95Q97.59-22.95 95.84-22.48 94.09-22 92.74-21.25L92.74-21.25 92.74 0 89.94 0 89.94-35 92.74-35 92.74-23.7Q93.99-24.55 95.74-25.03 97.49-25.5 99.39-25.5L99.39-25.5Q101.99-25.5 104.14-24.55L104.14-24.55Q106.14-23.65 107.27-21.85 108.39-20.05 108.39-17.3L108.39-17.3 108.39 0 105.64 0ZM133.94-9.2Q133.94-5 131.64-2.25 129.34 0.5 124.69 0.5L124.69 0.5Q120.04 0.5 117.67-2.27 115.29-5.05 115.29-9.2L115.29-9.2 115.29-15.8Q115.29-20.55 117.72-23.08 120.14-25.6 124.69-25.6L124.69-25.6Q129.04-25.6 131.49-22.98 133.94-20.35 133.94-15.8L133.94-15.8 133.94-9.2ZM131.14-15.8Q131.14-19.55 129.42-21.3 127.69-23.05 124.69-23.05L124.69-23.05Q121.59-23.05 119.84-21.3 118.09-19.55 118.09-15.8L118.09-15.8 118.09-8.7Q118.09-5.7 119.87-3.85 121.64-2 124.69-2L124.69-2Q127.79-2 129.47-3.83 131.14-5.65 131.14-8.7L131.14-8.7 131.14-15.8ZM139.49 10.5L139.49-25.05 142.29-25.05 142.04-22.5Q143.39-23.95 145.21-24.7 147.04-25.45 148.84-25.45L148.84-25.45Q153.49-25.45 155.91-22.75 158.34-20.05 158.34-15.75L158.34-15.75 158.34-8.8Q158.34-4.25 155.79-1.83 153.24 0.6 149.04 0.6L149.04 0.6Q146.89 0.6 145.24 0 143.59-0.6 142.29-2.1L142.29-2.1 142.29 9.4 139.49 10.5ZM155.54-15.95Q155.54-19.6 153.61-21.25 151.69-22.9 149.04-22.9L149.04-22.9Q146.34-22.9 144.39-21.28 142.44-19.65 142.29-16.2L142.29-16.2 142.29-8.3Q142.29-5.05 144.14-3.5 145.99-1.95 149.04-1.95L149.04-1.95Q151.79-1.95 153.66-3.58 155.54-5.2 155.54-8.3L155.54-8.3 155.54-15.95Z" opacity="1" transform="matrix(1,0,0,1,0,0)" fill="#ffffff" class="wordmark-text-0" data-fill-palette-color="primary" id="text-0"></path></svg></g></svg></g><g transform="matrix(1,0,0,1,0,145.607431906248)"><svg viewBox="0 0 232.209792 14.364350261343272" height="14.364350261343272" width="232.209792"><g transform="matrix(1,0,0,1,0,0)"><svg width="232.209792" viewBox="1.6 -35.7 697.49 43.150000000000006" height="14.364350261343272" data-palette-color="#89939e"><path d="M17.6 0L14 0 14-14.8 1.6-35 5.4-35 16.55-16.7 16.85-16.7 25.75-35 29.55-35 17.6-15.5 17.6 0ZM33.15-17.5L33.15-17.5Q33.15-21.35 34.52-24.68 35.9-28 38.37-30.48 40.85-32.95 44.17-34.33 47.5-35.7 51.35-35.7L51.35-35.7Q55.2-35.7 58.52-34.33 61.85-32.95 64.32-30.48 66.8-28 68.17-24.68 69.55-21.35 69.55-17.5L69.55-17.5Q69.55-13.65 68.17-10.33 66.8-7 64.32-4.53 61.85-2.05 58.52-0.68 55.2 0.7 51.35 0.7L51.35 0.7Q47.5 0.7 44.17-0.68 40.85-2.05 38.37-4.53 35.9-7 34.52-10.33 33.15-13.65 33.15-17.5ZM36.95-17.5L36.95-17.5Q36.95-12.4 38.75-8.58 40.55-4.75 43.8-2.63 47.05-0.5 51.35-0.5L51.35-0.5Q55.65-0.5 58.9-2.63 62.15-4.75 63.95-8.6 65.75-12.45 65.75-17.5L65.75-17.5Q65.75-22.55 63.95-26.38 62.15-30.2 58.9-32.35 55.65-34.5 51.35-34.5L51.35-34.5Q47.05-34.5 43.82-32.38 40.6-30.25 38.77-26.43 36.95-22.6 36.95-17.5ZM79.55-14L79.55-35 82.95-35 82.95-13.9Q82.95-7.85 85.92-4.48 88.9-1.1 94.3-1.1L94.3-1.1Q97.7-1.1 100.22-2.43 102.75-3.75 104.12-6.1 105.5-8.45 105.4-11.5L105.4-11.5 104.55-35 107.95-35 107.1-11.5Q106.9-5.5 103.52-2.4 100.15 0.7 93.9 0.7L93.9 0.7Q87.15 0.7 83.35-3.23 79.55-7.15 79.55-14L79.55-14ZM119.94 0L119.94-35 126.64-35Q131.94-35 134.87-32.77 137.79-30.55 137.79-26.55L137.79-26.55Q137.79-23.45 135.97-21.4 134.14-19.35 130.69-18.65L130.69-18.65 130.69-18.35Q133.99-17.7 136.09-15.25 138.19-12.8 139.24-9.2L139.24-9.2Q140.19-5.9 141.12-4.08 142.04-2.25 143.17-1.45 144.29-0.65 145.84-0.3L145.84-0.3 145.84 0 143.79 0Q141.59 0 140.17-0.8 138.74-1.6 137.74-3.5 136.74-5.4 135.84-8.75L135.84-8.75Q134.39-13.9 131.99-16.05 129.59-18.2 126.14-18.2L126.14-18.2 125.84-18.2 125.84-19.1 126.14-19.1Q134.19-19.1 134.19-26.5L134.19-26.5Q134.19-33.8 126.64-33.8L126.64-33.8 123.34-33.8 123.34 0 119.94 0ZM162.49-1.1L162.49-1.1 162.79-4.1 163.09-4.1Q165.04-2.4 167.49-1.45 169.94-0.5 172.34-0.5L172.34-0.5Q175.74-0.5 177.84-2.38 179.94-4.25 179.94-7.4L179.94-7.4Q179.94-9.15 179.16-10.65 178.39-12.15 176.61-13.7 174.84-15.25 171.74-17.05L171.74-17.05Q169.59-18.3 167.64-19.68 165.69-21.05 164.44-22.88 163.19-24.7 163.19-27.25L163.19-27.25Q163.19-31.05 165.94-33.38 168.69-35.7 173.19-35.7L173.19-35.7Q175.19-35.7 177.49-35.27 179.79-34.85 181.04-34.2L181.04-34.2 180.79-31.4 180.49-31.4Q177.64-34.5 173.19-34.5L173.19-34.5Q169.99-34.5 168.04-32.88 166.09-31.25 166.09-28.5L166.09-28.5Q166.09-26.45 167.16-24.98 168.24-23.5 169.94-22.33 171.64-21.15 173.59-20.05L173.59-20.05Q175.84-18.75 177.96-17.3 180.09-15.85 181.46-13.83 182.84-11.8 182.84-8.75L182.84-8.75Q182.84-5.95 181.54-3.83 180.24-1.7 177.86-0.5 175.49 0.7 172.34 0.7L172.34 0.7Q170.34 0.7 167.64 0.2 164.94-0.3 162.49-1.1ZM203.09 0L199.69 0 199.69-34Q198.94-34 196.59-33.7L196.59-33.7 186.79-32.45 186.79-35 215.99-35 215.99-32.45 206.19-33.7Q203.84-34 203.09-34L203.09-34 203.09 0ZM235.18 0L231.58 0 231.58-14.8 219.18-35 222.98-35 234.13-16.7 234.43-16.7 243.33-35 247.13-35 235.18-15.5 235.18 0ZM254.93 0L254.93-35 258.33-35 258.33-1Q259.28-1 261.33-1.3L261.33-1.3 269.63-2.55 269.63 0 254.93 0ZM293.38 0L277.98 0 277.98-35 293.23-35 293.23-32.55 284.48-33.7Q282.18-34 281.38-34L281.38-34 281.38-18.75Q282.03-18.75 284.48-18.9L284.48-18.9 292.68-19.4 292.68-17.1 284.48-17.6Q282.03-17.75 281.38-17.75L281.38-17.75 281.38-1Q282.28-1 284.53-1.3L284.53-1.3 293.38-2.45 293.38 0ZM301.13-2.1L301.13-2.1Q301.13-3.25 301.88-3.98 302.63-4.7 303.82-4.7L303.82-4.7Q305.23-4.7 305.95-3.68 306.68-2.65 306.68-0.75L306.68-0.75Q306.68 1.7 305.45 3.83 304.23 5.95 302.02 7.45L302.02 7.45 301.52 6.7Q304.98 4.1 305.18-0.6L305.18-0.6Q304.57 0.35 303.43 0.35L303.43 0.35Q302.38 0.35 301.75-0.35 301.13-1.05 301.13-2.1ZM341.67 0L338.07 0 338.07-14.8 325.67-35 329.47-35 340.62-16.7 340.92-16.7 349.82-35 353.62-35 341.67-15.5 341.67 0ZM357.22-17.5L357.22-17.5Q357.22-21.35 358.59-24.68 359.97-28 362.44-30.48 364.92-32.95 368.24-34.33 371.57-35.7 375.42-35.7L375.42-35.7Q379.27-35.7 382.59-34.33 385.92-32.95 388.39-30.48 390.87-28 392.24-24.68 393.62-21.35 393.62-17.5L393.62-17.5Q393.62-13.65 392.24-10.33 390.87-7 388.39-4.53 385.92-2.05 382.59-0.68 379.27 0.7 375.42 0.7L375.42 0.7Q371.57 0.7 368.24-0.68 364.92-2.05 362.44-4.53 359.97-7 358.59-10.33 357.22-13.65 357.22-17.5ZM361.02-17.5L361.02-17.5Q361.02-12.4 362.82-8.58 364.62-4.75 367.87-2.63 371.12-0.5 375.42-0.5L375.42-0.5Q379.72-0.5 382.97-2.63 386.22-4.75 388.02-8.6 389.82-12.45 389.82-17.5L389.82-17.5Q389.82-22.55 388.02-26.38 386.22-30.2 382.97-32.35 379.72-34.5 375.42-34.5L375.42-34.5Q371.12-34.5 367.89-32.38 364.67-30.25 362.84-26.43 361.02-22.6 361.02-17.5ZM403.62-14L403.62-35 407.02-35 407.02-13.9Q407.02-7.85 409.99-4.48 412.97-1.1 418.37-1.1L418.37-1.1Q421.77-1.1 424.29-2.43 426.82-3.75 428.19-6.1 429.57-8.45 429.47-11.5L429.47-11.5 428.62-35 432.02-35 431.17-11.5Q430.97-5.5 427.59-2.4 424.22 0.7 417.97 0.7L417.97 0.7Q411.22 0.7 407.42-3.23 403.62-7.15 403.62-14L403.62-14ZM444.01 0L444.01-35 450.71-35Q456.01-35 458.94-32.77 461.86-30.55 461.86-26.55L461.86-26.55Q461.86-23.45 460.04-21.4 458.21-19.35 454.76-18.65L454.76-18.65 454.76-18.35Q458.06-17.7 460.16-15.25 462.26-12.8 463.31-9.2L463.31-9.2Q464.26-5.9 465.19-4.08 466.11-2.25 467.24-1.45 468.36-0.65 469.91-0.3L469.91-0.3 469.91 0 467.86 0Q465.66 0 464.24-0.8 462.81-1.6 461.81-3.5 460.81-5.4 459.91-8.75L459.91-8.75Q458.46-13.9 456.06-16.05 453.66-18.2 450.21-18.2L450.21-18.2 449.91-18.2 449.91-19.1 450.21-19.1Q458.26-19.1 458.26-26.5L458.26-26.5Q458.26-33.8 450.71-33.8L450.71-33.8 447.41-33.8 447.41 0 444.01 0ZM486.56-1.1L486.56-1.1 486.86-4.1 487.16-4.1Q489.11-2.4 491.56-1.45 494.01-0.5 496.41-0.5L496.41-0.5Q499.81-0.5 501.91-2.38 504.01-4.25 504.01-7.4L504.01-7.4Q504.01-9.15 503.23-10.65 502.46-12.15 500.68-13.7 498.91-15.25 495.81-17.05L495.81-17.05Q493.66-18.3 491.71-19.68 489.76-21.05 488.51-22.88 487.26-24.7 487.26-27.25L487.26-27.25Q487.26-31.05 490.01-33.38 492.76-35.7 497.26-35.7L497.26-35.7Q499.26-35.7 501.56-35.27 503.86-34.85 505.11-34.2L505.11-34.2 504.86-31.4 504.56-31.4Q501.71-34.5 497.26-34.5L497.26-34.5Q494.06-34.5 492.11-32.88 490.16-31.25 490.16-28.5L490.16-28.5Q490.16-26.45 491.23-24.98 492.31-23.5 494.01-22.33 495.71-21.15 497.66-20.05L497.66-20.05Q499.91-18.75 502.03-17.3 504.16-15.85 505.53-13.83 506.91-11.8 506.91-8.75L506.91-8.75Q506.91-5.95 505.61-3.83 504.31-1.7 501.93-0.5 499.56 0.7 496.41 0.7L496.41 0.7Q494.41 0.7 491.71 0.2 489.01-0.3 486.56-1.1ZM515.21 0L511.56 0 525.01-35 528.11-35 541.56 0 537.91 0 531.71-16.4 520.36-16.4 515.21 0ZM525.66-32.4L525.36-32.4 520.71-17.6 531.26-17.6 525.66-32.4ZM557.9 0.7L542-35 545.75-35 559.4-3.9 559.7-3.9 571.15-35 574.9-35 559 0.7 557.9 0.7ZM586.1 0L582.7 0 582.7-35 586.1-35 586.1 0ZM601.75 0L598.35 0 599.6-35.7 600.2-35.7 625.35-5.3 625.65-5.3 624.55-35 627.95-35 626.7 0.7 626.1 0.7 600.95-29.7 600.65-29.7 601.75 0ZM666.89-16.6L657.64-16.6 657.64-17.8 670.29-17.8 670.29-4.2Q667.99-1.9 664.67-0.6 661.34 0.7 657.24 0.7L657.24 0.7Q653.04 0.7 649.49-0.68 645.94-2.05 643.29-4.53 640.64-7 639.17-10.3 637.69-13.6 637.69-17.5L637.69-17.5Q637.69-21.4 639.17-24.7 640.64-28 643.29-30.48 645.94-32.95 649.49-34.33 653.04-35.7 657.24-35.7L657.24-35.7Q659.04-35.7 661.17-35.45 663.29-35.2 665.24-34.77 667.19-34.35 668.54-33.75L668.54-33.75 668.29-30.95 667.99-30.95Q665.99-32.7 663.19-33.6 660.39-34.5 657.24-34.5L657.24-34.5Q652.54-34.5 648.99-32.38 645.44-30.25 643.47-26.43 641.49-22.6 641.49-17.5L641.49-17.5Q641.49-12.4 643.47-8.58 645.44-4.75 648.99-2.63 652.54-0.5 657.24-0.5L657.24-0.5Q660.14-0.5 662.62-1.3 665.09-2.1 666.89-3.6L666.89-3.6 666.89-16.6ZM678.74-1.1L678.74-1.1 679.04-4.1 679.34-4.1Q681.29-2.4 683.74-1.45 686.19-0.5 688.59-0.5L688.59-0.5Q691.99-0.5 694.09-2.38 696.19-4.25 696.19-7.4L696.19-7.4Q696.19-9.15 695.42-10.65 694.64-12.15 692.87-13.7 691.09-15.25 687.99-17.05L687.99-17.05Q685.84-18.3 683.89-19.68 681.94-21.05 680.69-22.88 679.44-24.7 679.44-27.25L679.44-27.25Q679.44-31.05 682.19-33.38 684.94-35.7 689.44-35.7L689.44-35.7Q691.44-35.7 693.74-35.27 696.04-34.85 697.29-34.2L697.29-34.2 697.04-31.4 696.74-31.4Q693.89-34.5 689.44-34.5L689.44-34.5Q686.24-34.5 684.29-32.88 682.34-31.25 682.34-28.5L682.34-28.5Q682.34-26.45 683.42-24.98 684.49-23.5 686.19-22.33 687.89-21.15 689.84-20.05L689.84-20.05Q692.09-18.75 694.22-17.3 696.34-15.85 697.72-13.83 699.09-11.8 699.09-8.75L699.09-8.75Q699.09-5.95 697.79-3.83 696.49-1.7 694.12-0.5 691.74 0.7 688.59 0.7L688.59 0.7Q686.59 0.7 683.89 0.2 681.19-0.3 678.74-1.1Z" opacity="1" transform="matrix(1,0,0,1,0,0)" fill="#ffffff" class="slogan-text-1" data-fill-palette-color="secondary" id="text-1"></path></svg></g></svg></g></svg></g></svg></g><g><svg viewBox="0 0 244.43135999999998 216.0143884104519" height="216.0143884104519" width="244.43135999999998"><g><svg xmlns="http://www.w3.org/2000/svg" xmlns:xlink="http://www.w3.org/1999/xlink" version="1.1" x="0" y="0" viewBox="9.22 11.139998451500785 85.13 75.23300154849922" enable-background="new 0 0 100 100" xml:space="preserve" height="216.0143884104519" width="244.43135999999998" class="icon-icon-0" data-fill-palette-color="accent" id="icon-0"><g fill="#89939e" data-fill-palette-color="accent"><g fill="#89939e" data-fill-palette-color="accent"><path d="M70.611 34.62L66.412 13.002H73.12L80.113 34.62zM47.05 34.62L48.439 13.002H54.885L56.212 34.62zM23.523 34.62L30.442 13.002H37.193L32.911 34.62zM22.957 65.521V39.557C23.887 41.195 26.002 42.535 28.263 42.535 30.835 42.535 32.897 40.8 34.112 38.867 35.325 40.8 37.42 42.535 39.993 42.535 42.565 42.535 44.677 40.8 45.889 38.867 47.102 40.8 49.221 42.535 51.795 42.535 54.367 42.535 56.491 40.8 57.705 38.867 58.917 40.8 61.042 42.535 63.613 42.535 66.187 42.535 68.312 40.8 69.527 38.867 70.74 40.8 72.736 42.535 75.31 42.535 77.572 42.535 79.683 41.195 80.613 39.557V65.521zM94.25 34.62C94.26 34.62 94.27 34.39 94.23 34.26 94.169 34.07 94.049 33.94 93.91 33.82L84.18 11.92A1.12 1.12 0 0 0 83.111 11.14H20.46C19.97 11.14 19.54 11.47 19.39 11.94L9.8 33.74C9.58 33.89 9.4 34.07 9.32 34.34 9.29 34.45 9.31 34.62 9.31 34.62H9.22L9.31 35.87C9.51 38.5 12.44 42.51 16.35 42.51 17.02 42.51 17.38 42.41 18.31 45.2L18.375 86.373C20.155 86.373 46.25 86.33 46.25 86.33V76.38A5.875 5.875 0 1 1 58 76.38V86.33S82.105 86.251 85.125 86.251L85.27 45.2C86.201 42.41 86.55 42.53 87.22 42.53 91.13 42.53 94.04 38.5 94.241 35.87L94.35 34.62z" fill="#ffffff" data-fill-palette-color="accent"></path></g></g><rect x="29.5" y="46.5" width="13.5" height="12.75" fill="#ffffff" data-fill-palette-color="accent"></rect><rect x="45.375" y="46.5" width="13.5" height="12.75" fill="#ffffff" data-fill-palette-color="accent"></rect><rect x="61.25" y="46.5" width="13.5" height="12.75" fill="#ffffff" data-fill-palette-color="accent"></rect></svg></g></svg></g></svg></g><defs></defs></svg><rect width="395.52" height="127.94705468861937" fill="none" stroke="none" visibility="hidden"></rect></g></svg></g></svg>